<?xml version="1.0" encoding="UTF-8"?>
<svg id="_图层_1" data-name="图层_1" xmlns="http://www.w3.org/2000/svg" version="1.1" viewBox="0 0 192 192">
  <!-- Generator: Adobe Illustrator 29.3.1, SVG Export Plug-In . SVG Version: 2.1.0 Build 151)  -->
  <defs>
    <style>
      .st0 {
        fill: #3067cb;
      }
    </style>
  </defs>
  <path class="st0" d="M135.2,87.1h-19.2c-.9,0-1.7-.4-2.3-1-.6-.7-.9-1.5-.8-2.4l5.5-65.9c.1-1.4-.7-2.7-2.1-3.2-1.3-.5-2.8,0-3.6,1.1l-58.4,84.3c-.7.9-.7,2.2-.1,3.2.5,1,1.6,1.6,2.7,1.7h19.2c.9,0,1.7.4,2.3,1,.6.7.9,1.5.8,2.4l-5.5,65.9c-.1,1.4.7,2.7,2.1,3.2,1.3.5,2.8,0,3.6-1.1l58.4-84.3c.7-.9.7-2.2.1-3.2-.5-1-1.6-1.6-2.7-1.7h0Z"/>
</svg>